<svg xmlns="http://www.w3.org/2000/svg" viewBox="0 0 512 512" role="img" aria-labelledby="title">
  <title id="title">ClimbLog icon</title>
  <rect width="512" height="512" rx="96" fill="#121315"/>
  <rect x="72" y="92" width="368" height="328" rx="32" fill="#1b1e1b" stroke="#3d453c" stroke-width="8"/>
  <g fill="#242a24">
    <rect x="112" y="152" width="44" height="44" rx="10"/>
    <rect x="170" y="152" width="44" height="44" rx="10"/>
    <rect x="228" y="152" width="44" height="44" rx="10"/>
    <rect x="286" y="152" width="44" height="44" rx="10"/>
    <rect x="344" y="152" width="44" height="44" rx="10"/>
    <rect x="112" y="210" width="44" height="44" rx="10"/>
    <rect x="170" y="210" width="44" height="44" rx="10"/>
    <rect x="228" y="210" width="44" height="44" rx="10"/>
    <rect x="286" y="210" width="44" height="44" rx="10"/>
    <rect x="344" y="210" width="44" height="44" rx="10"/>
    <rect x="112" y="268" width="44" height="44" rx="10"/>
    <rect x="170" y="268" width="44" height="44" rx="10"/>
    <rect x="228" y="268" width="44" height="44" rx="10"/>
    <rect x="286" y="268" width="44" height="44" rx="10"/>
    <rect x="344" y="268" width="44" height="44" rx="10"/>
    <rect x="112" y="326" width="44" height="44" rx="10"/>
    <rect x="170" y="326" width="44" height="44" rx="10"/>
    <rect x="228" y="326" width="44" height="44" rx="10"/>
    <rect x="286" y="326" width="44" height="44" rx="10"/>
    <rect x="344" y="326" width="44" height="44" rx="10"/>
  </g>
  <g fill="#29d3c0">
    <rect x="170" y="210" width="44" height="44" rx="10" opacity="0.45"/>
    <rect x="228" y="210" width="44" height="44" rx="10" opacity="0.75"/>
    <rect x="286" y="210" width="44" height="44" rx="10"/>
    <rect x="228" y="268" width="44" height="44" rx="10" opacity="0.6"/>
    <rect x="344" y="268" width="44" height="44" rx="10" opacity="0.9"/>
    <rect x="170" y="326" width="44" height="44" rx="10"/>
    <rect x="286" y="326" width="44" height="44" rx="10" opacity="0.55"/>
  </g>
  <path d="M148 118h216" stroke="#f3f5ef" stroke-width="18" stroke-linecap="round"/>
</svg>
